# Blender 4.3.1
# www.blender.org
mtllib SpellCastwheel_1.mtl
o Circle.002
v 0.000000 0.050561 -0.341477
v -0.066619 0.050561 -0.334915
v 0.066619 0.050561 -0.334915
v 0.000000 0.050561 -0.178145
v -0.034754 0.050561 -0.174722
v 0.034754 0.050561 -0.174722
v 0.068173 0.050561 -0.164585
v 0.098972 0.050561 -0.148122
v 0.130677 0.050561 -0.315483
v 0.189714 0.050561 -0.283928
v 0.241461 0.050561 -0.241461
v 0.283928 0.050561 -0.189714
v 0.125968 0.050561 -0.125968
v 0.148122 0.050561 -0.098972
v 0.164585 0.050561 -0.068173
v 0.174722 0.050561 -0.034754
v 0.315483 0.050561 -0.130677
v 0.334915 0.050561 -0.066619
v 0.341477 0.050561 0.000000
v 0.334915 0.050561 0.066619
v 0.178145 0.050561 0.000000
v 0.174722 0.050561 0.034754
v 0.164585 0.050561 0.068173
v 0.148122 0.050561 0.098972
v 0.315483 0.050561 0.130677
v 0.283928 0.050561 0.189714
v 0.241461 0.050561 0.241461
v 0.189714 0.050561 0.283928
v 0.125968 0.050561 0.125968
v 0.098972 0.050561 0.148122
v 0.068173 0.050561 0.164585
v 0.034754 0.050561 0.174722
v 0.130677 0.050561 0.315483
v 0.066619 0.050561 0.334915
v 0.000000 0.050561 0.341477
v -0.066619 0.050561 0.334915
v 0.000000 0.050561 0.178145
v -0.034754 0.050561 0.174722
v -0.068173 0.050561 0.164585
v -0.098972 0.050561 0.148122
v -0.130677 0.050561 0.315483
v -0.189714 0.050561 0.283928
v -0.241461 0.050561 0.241461
v -0.283928 0.050561 0.189714
v -0.125968 0.050561 0.125968
v -0.148122 0.050561 0.098972
v -0.164585 0.050561 0.068173
v -0.174722 0.050561 0.034754
v -0.315483 0.050561 0.130677
v -0.334915 0.050561 0.066619
v -0.341477 0.050561 0.000000
v -0.334915 0.050561 -0.066619
v -0.178145 0.050561 0.000000
v -0.174722 0.050561 -0.034754
v -0.164585 0.050561 -0.068173
v -0.148122 0.050561 -0.098972
v -0.315483 0.050561 -0.130677
v -0.283928 0.050561 -0.189714
v -0.241461 0.050561 -0.241461
v -0.189714 0.050561 -0.283928
v -0.125968 0.050561 -0.125968
v -0.098972 0.050561 -0.148122
v -0.068173 0.050561 -0.164585
v -0.130677 0.050561 -0.315483
vn -0.0000 1.0000 -0.0000
vt 0.484337 0.578743
vt 0.500000 0.580286
vt 0.500000 0.653895
vt 0.469977 0.650938
vt 0.515663 0.578743
vt 0.530023 0.650938
vt 0.530724 0.574174
vt 0.558893 0.642181
vt 0.544604 0.566755
vt 0.585500 0.627959
vt 0.556770 0.556770
vt 0.608820 0.608820
vt 0.566755 0.544604
vt 0.627959 0.585500
vt 0.574174 0.530724
vt 0.642181 0.558893
vt 0.578743 0.515663
vt 0.650938 0.530023
vt 0.580286 0.500000
vt 0.653895 0.500000
vt 0.578743 0.484337
vt 0.650938 0.469977
vt 0.574174 0.469276
vt 0.642181 0.441107
vt 0.566755 0.455396
vt 0.627959 0.414501
vt 0.556770 0.443229
vt 0.608820 0.391180
vt 0.544604 0.433245
vt 0.585500 0.372041
vt 0.530724 0.425826
vt 0.558893 0.357819
vt 0.515663 0.421257
vt 0.530023 0.349062
vt 0.500000 0.419714
vt 0.500000 0.346105
vt 0.484337 0.421257
vt 0.469977 0.349062
vt 0.469276 0.425826
vt 0.441107 0.357819
vt 0.455396 0.433245
vt 0.414501 0.372041
vt 0.443229 0.443229
vt 0.391180 0.391180
vt 0.433245 0.455396
vt 0.372041 0.414501
vt 0.425826 0.469276
vt 0.357819 0.441107
vt 0.421257 0.484337
vt 0.349062 0.469977
vt 0.419714 0.500000
vt 0.346105 0.500000
vt 0.421257 0.515663
vt 0.349062 0.530023
vt 0.425826 0.530724
vt 0.357819 0.558893
vt 0.433245 0.544604
vt 0.372041 0.585500
vt 0.443229 0.556770
vt 0.391180 0.608820
vt 0.455396 0.566755
vt 0.414501 0.627959
vt 0.469276 0.574174
vt 0.441107 0.642181
s 0
usemtl Radl
f 5/1/1 4/2/1 1/3/1 2/4/1
f 4/2/1 6/5/1 3/6/1 1/3/1
f 6/5/1 7/7/1 9/8/1 3/6/1
f 7/7/1 8/9/1 10/10/1 9/8/1
f 8/9/1 13/11/1 11/12/1 10/10/1
f 13/11/1 14/13/1 12/14/1 11/12/1
f 14/13/1 15/15/1 17/16/1 12/14/1
f 15/15/1 16/17/1 18/18/1 17/16/1
f 16/17/1 21/19/1 19/20/1 18/18/1
f 21/19/1 22/21/1 20/22/1 19/20/1
f 22/21/1 23/23/1 25/24/1 20/22/1
f 23/23/1 24/25/1 26/26/1 25/24/1
f 24/25/1 29/27/1 27/28/1 26/26/1
f 29/27/1 30/29/1 28/30/1 27/28/1
f 30/29/1 31/31/1 33/32/1 28/30/1
f 31/31/1 32/33/1 34/34/1 33/32/1
f 32/33/1 37/35/1 35/36/1 34/34/1
f 37/35/1 38/37/1 36/38/1 35/36/1
f 38/37/1 39/39/1 41/40/1 36/38/1
f 39/39/1 40/41/1 42/42/1 41/40/1
f 40/41/1 45/43/1 43/44/1 42/42/1
f 45/43/1 46/45/1 44/46/1 43/44/1
f 46/45/1 47/47/1 49/48/1 44/46/1
f 47/47/1 48/49/1 50/50/1 49/48/1
f 48/49/1 53/51/1 51/52/1 50/50/1
f 53/51/1 54/53/1 52/54/1 51/52/1
f 54/53/1 55/55/1 57/56/1 52/54/1
f 55/55/1 56/57/1 58/58/1 57/56/1
f 56/57/1 61/59/1 59/60/1 58/58/1
f 61/59/1 62/61/1 60/62/1 59/60/1
f 62/61/1 63/63/1 64/64/1 60/62/1
f 63/63/1 5/1/1 2/4/1 64/64/1
